# xmcd CD database file
#
# Track frame offsets:
#	150
#	11880
#	27315
#	42081
#	60530
#	91702
#	113913
#	139884
#	157983
#	180122
#	196986
#	218874
#
# Disc length: 3143 seconds
#
# Revision: 0
# Processed by: cddbd v1.5.2PL0 Copyright (c) Steve Scherf et al.
# Submitted via: CDex 1.51
#
DISCID=960c450c
DTITLE=Emmy Rossum - Inside Out
DYEAR=2007
DGENRE=New Age
TTITLE0=Slow Me Down
TTITLE1=Inside Out
TTITLE2=Stay
TTITLE3=Falling (Album Version)
TTITLE4=The Great Divide
TTITLE5=Lullaby
TTITLE6=Don't Stop Now
TTITLE7=High
TTITLE8=A Million Pieces
TTITLE9=Rainy Days and Mondays
TTITLE10=Anymore
TTITLE11=Been Too Long
EXTD=YEAR: 2007
EXTT0=
EXTT1=
EXTT2=
EXTT3=
EXTT4=
EXTT5=
EXTT6=
EXTT7=
EXTT8=
EXTT9=
EXTT10=
EXTT11=
PLAYORDER=
